<svg width="30" height="30" viewBox="0 0 30 30" fill="none" xmlns="http://www.w3.org/2000/svg">
<g id="heroicons-solid/bars-3">
<path id="Vector (Stroke)" fill-rule="evenodd" clip-rule="evenodd" d="M3.75 8.4375C3.75 7.91973 4.16973 7.5 4.6875 7.5H25.3125C25.8303 7.5 26.25 7.91973 26.25 8.4375C26.25 8.95527 25.8303 9.375 25.3125 9.375H4.6875C4.16973 9.375 3.75 8.95527 3.75 8.4375ZM3.75 15C3.75 14.4822 4.16973 14.0625 4.6875 14.0625H25.3125C25.8303 14.0625 26.25 14.4822 26.25 15C26.25 15.5178 25.8303 15.9375 25.3125 15.9375H4.6875C4.16973 15.9375 3.75 15.5178 3.75 15ZM3.75 21.5625C3.75 21.0447 4.16973 20.625 4.6875 20.625H25.3125C25.8303 20.625 26.25 21.0447 26.25 21.5625C26.25 22.0803 25.8303 22.5 25.3125 22.5H4.6875C4.16973 22.5 3.75 22.0803 3.75 21.5625Z" fill="#111111"/>
</g>
</svg>
